<?xml version="1.0" encoding="UTF-8"?>
<svg version="1.1" xmlns="http://www.w3.org/2000/svg" width="48" height="48">
<path d="M0 0 C4.83026373 2.59562215 7.3207586 5.81030824 9 11 C10.34908816 19.00749101 9.93195828 26.30204586 8.27734375 34.22265625 C7.97482671 37.25208749 8.36574469 38.48529718 10 41 C6.375 44 6.375 44 3 44 C2.67 43.34 2.34 42.68 2 42 C-0.97477337 41.63955967 -3.9282498 41.5556949 -6.921875 41.44140625 C-11.81098991 40.74030221 -14.27693639 38.94399971 -17.25 35.0625 C-21.36073416 27.86871522 -20.96781225 18.42959078 -19.5390625 10.4140625 C-18.27864539 6.54384056 -16.24894511 3.27790752 -12.93359375 0.85546875 C-8.71053805 -1.01291347 -4.46118478 -0.9180989 0 0 Z M-6 8 C-8.96883848 10.45251874 -9.59519578 12.19484037 -10 16 C-10.47435318 23.2909822 -10.47435318 23.2909822 -8 30 C-7.67 29.01 -7.34 28.02 -7 27 C-2.78947368 25 -2.78947368 25 -1 25 C-0.94576362 23.08364783 -0.90710037 21.16685075 -0.875 19.25 C-0.85179687 18.18265625 -0.82859375 17.1153125 -0.8046875 16.015625 C-0.99747219 13.03902932 -1.2917064 11.42102537 -3 9 C-3.99 8.67 -4.98 8.34 -6 8 Z M-8 30 C-8 30.66 -8 31.32 -8 32 C-7.34 31.67 -6.68 31.34 -6 31 C-6.66 30.67 -7.32 30.34 -8 30 Z " fill="#000000" transform="translate(29,2)"/>
</svg>
